<svg viewBox="0 0 920 1170" xmlns="http://www.w3.org/2000/svg" font-family="ui-sans-serif,'Segoe UI',system-ui,sans-serif">
  <defs>
    <pattern id="grid" width="28" height="28" patternUnits="userSpaceOnUse">
      <path d="M28 0H0V28" fill="none" stroke="#16233b" stroke-width="1"/>
    </pattern>
    <radialGradient id="glowP" cx="82%" cy="5%" r="42%">
      <stop offset="0%" stop-color="#a78bfa" stop-opacity="0.12"/>
      <stop offset="100%" stop-color="#a78bfa" stop-opacity="0"/>
    </radialGradient>
    <radialGradient id="glowT" cx="10%" cy="95%" r="45%">
      <stop offset="0%" stop-color="#2dd4bf" stop-opacity="0.10"/>
      <stop offset="100%" stop-color="#2dd4bf" stop-opacity="0"/>
    </radialGradient>
    <marker id="ah" viewBox="0 0 10 10" refX="8" refY="5" markerWidth="7" markerHeight="7" orient="auto-start-reverse">
      <path d="M1 1L8 5L1 9" fill="none" stroke="#5b7099" stroke-width="1.6" stroke-linecap="round" stroke-linejoin="round"/>
    </marker>
    <marker id="aho" viewBox="0 0 10 10" refX="8" refY="5" markerWidth="7" markerHeight="7" orient="auto-start-reverse">
      <path d="M1 1L8 5L1 9" fill="none" stroke="#ff9f1c" stroke-width="1.6" stroke-linecap="round" stroke-linejoin="round"/>
    </marker>
    <marker id="ahg" viewBox="0 0 10 10" refX="8" refY="5" markerWidth="7" markerHeight="7" orient="auto-start-reverse">
      <path d="M1 1L8 5L1 9" fill="none" stroke="#4ade80" stroke-width="1.6" stroke-linecap="round" stroke-linejoin="round"/>
    </marker>
  </defs>

  <rect x="0" y="0" width="920" height="1170" rx="18" fill="#0a0f1a"/>
  <rect x="0" y="0" width="920" height="1170" rx="18" fill="url(#grid)"/>
  <rect x="0" y="0" width="920" height="1170" rx="18" fill="url(#glowP)"/>
  <rect x="0" y="0" width="920" height="1170" rx="18" fill="url(#glowT)"/>
  <rect x="8" y="8" width="904" height="1154" rx="14" fill="none" stroke="#22314d" stroke-width="1"/>

  <text x="40" y="52" font-size="22" font-weight="700" fill="#ffffff">VProfile · Docker Architecture</text>
  <text x="40" y="74" font-family="ui-monospace,'Courier New',monospace" font-size="12" letter-spacing="1" fill="#6d7f9e">3-tier Java app · multi-stage build · docker compose on EC2 · AWS ALB</text>

  <text x="40" y="112" font-family="ui-monospace,'Courier New',monospace" font-size="12" letter-spacing="2" fill="#2dd4bf">① BUILD PHASE — MULTI-STAGE DOCKERFILE</text>
  <line x1="40" y1="122" x2="880" y2="122" stroke="#1f2c47" stroke-width="1"/>

  <rect x="40" y="150" width="185" height="96" rx="10" fill="#0f1626" stroke="#3a4c70" stroke-width="1.2"/>
  <rect x="40" y="150" width="185" height="4" rx="2" fill="#5b7099"/>
  <text x="132" y="182" text-anchor="middle" font-size="15" font-weight="700" fill="#e6ebf5">Build Context</text>
  <text x="132" y="206" text-anchor="middle" font-family="ui-monospace,'Courier New',monospace" font-size="11" fill="#9fb0cc">src/  ·  pom.xml</text>
  <text x="132" y="226" text-anchor="middle" font-family="ui-monospace,'Courier New',monospace" font-size="10" fill="#6d7f9e">COPY . .</text>

  <line x1="225" y1="198" x2="258" y2="198" stroke="#5b7099" stroke-width="1.6" marker-end="url(#ah)"/>

  <rect x="262" y="150" width="185" height="96" rx="10" fill="#0f1626" stroke="#ff9f1c" stroke-width="1.2"/>
  <rect x="262" y="150" width="185" height="4" rx="2" fill="#ff9f1c"/>
  <text x="354" y="178" text-anchor="middle" font-size="15" font-weight="700" fill="#e6ebf5">Stage 1 · Builder</text>
  <text x="354" y="200" text-anchor="middle" font-family="ui-monospace,'Courier New',monospace" font-size="10.5" fill="#ff9f1c">maven:3.9.9-temurin-8</text>
  <text x="354" y="220" text-anchor="middle" font-family="ui-monospace,'Courier New',monospace" font-size="10.5" fill="#9fb0cc">mvn clean package</text>
  <text x="354" y="237" text-anchor="middle" font-family="ui-monospace,'Courier New',monospace" font-size="9.5" fill="#6d7f9e">(JDK + Maven · discarded)</text>

  <line x1="447" y1="198" x2="480" y2="198" stroke="#ff9f1c" stroke-width="1.6" marker-end="url(#aho)"/>
  <text x="463" y="188" text-anchor="middle" font-family="ui-monospace,'Courier New',monospace" font-size="9" fill="#ff9f1c">.war</text>

  <rect x="484" y="150" width="185" height="96" rx="10" fill="#0f1626" stroke="#2dd4bf" stroke-width="1.2"/>
  <rect x="484" y="150" width="185" height="4" rx="2" fill="#2dd4bf"/>
  <text x="576" y="178" text-anchor="middle" font-size="15" font-weight="700" fill="#e6ebf5">Stage 2 · Runtime</text>
  <text x="576" y="200" text-anchor="middle" font-family="ui-monospace,'Courier New',monospace" font-size="10.5" fill="#2dd4bf">tomcat:9-jre8-temurin</text>
  <text x="576" y="220" text-anchor="middle" font-family="ui-monospace,'Courier New',monospace" font-size="10.5" fill="#9fb0cc">COPY war → ROOT.war</text>
  <text x="576" y="237" text-anchor="middle" font-family="ui-monospace,'Courier New',monospace" font-size="9.5" fill="#6d7f9e">non-root · appuser</text>

  <line x1="669" y1="198" x2="702" y2="198" stroke="#5b7099" stroke-width="1.6" marker-end="url(#ah)"/>

  <rect x="706" y="150" width="174" height="96" rx="10" fill="#0f1626" stroke="#a78bfa" stroke-width="1.2"/>
  <rect x="706" y="150" width="174" height="4" rx="2" fill="#a78bfa"/>
  <text x="793" y="186" text-anchor="middle" font-size="15" font-weight="700" fill="#e6ebf5">app image</text>
  <text x="793" y="210" text-anchor="middle" font-family="ui-monospace,'Courier New',monospace" font-size="11" fill="#a78bfa">vprofile:latest</text>
  <text x="793" y="229" text-anchor="middle" font-family="ui-monospace,'Courier New',monospace" font-size="9.5" fill="#6d7f9e">JRE + Tomcat + WAR</text>

  <path d="M793 246 L793 644 L589 644" fill="none" stroke="#a78bfa" stroke-width="1.3" stroke-dasharray="5 5" marker-end="url(#ah)"/>
  <text x="793" y="300" text-anchor="middle" font-family="ui-monospace,'Courier New',monospace" font-size="9.5" fill="#8a97b5">image ▸ app</text>

  <text x="40" y="340" font-family="ui-monospace,'Courier New',monospace" font-size="12" letter-spacing="2" fill="#2dd4bf">② RUNTIME PHASE — DOCKER COMPOSE ON EC2</text>

  <!-- Admin / DevOps SSH path via Bastion -->
  <rect x="40" y="356" width="185" height="54" rx="10" fill="#0b1220" stroke="#3a4c70" stroke-width="1.2"/>
  <text x="132" y="379" text-anchor="middle" font-size="13" font-weight="700" fill="#e6ebf5">Admin / DevOps</text>
  <text x="132" y="397" text-anchor="middle" font-family="ui-monospace,'Courier New',monospace" font-size="10" fill="#9fb0cc">SSH client</text>

  <line x1="132" y1="410" x2="132" y2="444" stroke="#4ade80" stroke-width="1.4" marker-end="url(#ahg)"/>

  <rect x="40" y="448" width="200" height="72" rx="10" fill="#0f1626" stroke="#4ade80" stroke-width="1.3"/>
  <rect x="40" y="448" width="200" height="4" rx="2" fill="#4ade80"/>
  <text x="140" y="474" text-anchor="middle" font-size="15" font-weight="700" fill="#e6ebf5">Bastion EC2</text>
  <text x="140" y="494" text-anchor="middle" font-family="ui-monospace,'Courier New',monospace" font-size="10.5" fill="#4ade80">public subnet</text>
  <text x="140" y="510" text-anchor="middle" font-family="ui-monospace,'Courier New',monospace" font-size="10" fill="#9fb0cc">jump host · SSH :22</text>

  <path d="M140 520 L140 644 L331 644" fill="none" stroke="#4ade80" stroke-width="1.3" stroke-dasharray="5 5" marker-end="url(#ahg)"/>
  <text x="150" y="600" font-family="ui-monospace,'Courier New',monospace" font-size="9.5" fill="#4ade80">SSH :22 → host</text>

  <rect x="340" y="352" width="240" height="58" rx="10" fill="#0b1220" stroke="#3a4c70" stroke-width="1.2"/>
  <text x="460" y="377" text-anchor="middle" font-size="14" font-weight="700" fill="#e6ebf5">User / Browser</text>
  <text x="460" y="397" text-anchor="middle" font-family="ui-monospace,'Courier New',monospace" font-size="11" fill="#2dd4bf">https://vprofile-alb...</text>

  <line x1="460" y1="410" x2="460" y2="436" stroke="#5b7099" stroke-width="1.6" marker-end="url(#ah)"/>
  <text x="472" y="428" font-family="ui-monospace,'Courier New',monospace" font-size="9.5" fill="#8a97b5">HTTPS</text>

  <rect x="300" y="440" width="320" height="72" rx="10" fill="#0f1626" stroke="#ff9f1c" stroke-width="1.4"/>
  <rect x="300" y="440" width="320" height="4" rx="2" fill="#ff9f1c"/>
  <text x="460" y="466" text-anchor="middle" font-size="15" font-weight="700" fill="#e6ebf5">AWS ALB · Application Load Balancer</text>
  <text x="460" y="487" text-anchor="middle" font-family="ui-monospace,'Courier New',monospace" font-size="10.5" fill="#ff9f1c">listener :80 / :443</text>
  <text x="460" y="504" text-anchor="middle" font-family="ui-monospace,'Courier New',monospace" font-size="10" fill="#9fb0cc">health check: GET /login → 200</text>

  <line x1="460" y1="512" x2="460" y2="594" stroke="#5b7099" stroke-width="1.6" marker-end="url(#ah)"/>
  <text x="472" y="556" font-family="ui-monospace,'Courier New',monospace" font-size="9.5" fill="#8a97b5">target group → :8080</text>

  <rect x="40" y="560" width="840" height="580" rx="16" fill="none" stroke="#2a3b5e" stroke-width="1.4" stroke-dasharray="8 6"/>
  <rect x="286" y="548" width="400" height="24" rx="6" fill="#0a0f1a"/>
  <text x="296" y="565" font-family="ui-monospace,'Courier New',monospace" font-size="11" fill="#6d7f9e">EC2 host · private subnet · docker network (bridge)</text>

  <rect x="335" y="596" width="250" height="96" rx="10" fill="#0f1626" stroke="#2dd4bf" stroke-width="1.4"/>
  <rect x="335" y="596" width="4" height="96" rx="2" fill="#2dd4bf"/>
  <text x="460" y="628" text-anchor="middle" font-size="16" font-weight="700" fill="#e6ebf5">app · Tomcat</text>
  <text x="460" y="652" text-anchor="middle" font-family="ui-monospace,'Courier New',monospace" font-size="11" fill="#2dd4bf">ROOT.war   :8080</text>
  <text x="460" y="672" text-anchor="middle" font-family="ui-monospace,'Courier New',monospace" font-size="10" fill="#6d7f9e">build: .  (multi-stage)</text>

  <path d="M400 692 L210 796" fill="none" stroke="#5b7099" stroke-width="1.5" marker-end="url(#ah)"/>
  <text x="262" y="745" text-anchor="middle" font-family="ui-monospace,'Courier New',monospace" font-size="9.5" fill="#ff9f1c">JDBC :3306</text>

  <line x1="460" y1="692" x2="460" y2="796" stroke="#5b7099" stroke-width="1.5" marker-end="url(#ah)"/>
  <text x="472" y="748" font-family="ui-monospace,'Courier New',monospace" font-size="9.5" fill="#a78bfa">AMQP :5672</text>

  <path d="M522 692 L710 796" fill="none" stroke="#5b7099" stroke-width="1.5" marker-end="url(#ah)"/>
  <text x="658" y="745" text-anchor="middle" font-family="ui-monospace,'Courier New',monospace" font-size="9.5" fill="#38bdf8">cache :11211</text>

  <rect x="80" y="800" width="230" height="104" rx="10" fill="#0f1626" stroke="#ff9f1c" stroke-width="1.3"/>
  <rect x="80" y="800" width="4" height="104" rx="2" fill="#ff9f1c"/>
  <text x="195" y="830" text-anchor="middle" font-size="16" font-weight="700" fill="#e6ebf5">db01</text>
  <text x="195" y="852" text-anchor="middle" font-family="ui-monospace,'Courier New',monospace" font-size="11" fill="#ff9f1c">mysql:8.0   :3306</text>
  <text x="195" y="872" text-anchor="middle" font-family="ui-monospace,'Courier New',monospace" font-size="10.5" fill="#9fb0cc">database: accounts</text>
  <text x="195" y="891" text-anchor="middle" font-family="ui-monospace,'Courier New',monospace" font-size="9.5" fill="#6d7f9e">restart: unless-stopped</text>

  <rect x="345" y="800" width="230" height="104" rx="10" fill="#0f1626" stroke="#a78bfa" stroke-width="1.3"/>
  <rect x="345" y="800" width="4" height="104" rx="2" fill="#a78bfa"/>
  <text x="460" y="830" text-anchor="middle" font-size="16" font-weight="700" fill="#e6ebf5">rmq01</text>
  <text x="460" y="852" text-anchor="middle" font-family="ui-monospace,'Courier New',monospace" font-size="11" fill="#a78bfa">rabbitmq:3-mgmt</text>
  <text x="460" y="872" text-anchor="middle" font-family="ui-monospace,'Courier New',monospace" font-size="10.5" fill="#9fb0cc">amqp :5672</text>
  <text x="460" y="891" text-anchor="middle" font-family="ui-monospace,'Courier New',monospace" font-size="10.5" fill="#9fb0cc">mgmt UI :15672</text>

  <rect x="610" y="800" width="220" height="104" rx="10" fill="#0f1626" stroke="#38bdf8" stroke-width="1.3"/>
  <rect x="610" y="800" width="4" height="104" rx="2" fill="#38bdf8"/>
  <text x="720" y="830" text-anchor="middle" font-size="16" font-weight="700" fill="#e6ebf5">mc01</text>
  <text x="720" y="852" text-anchor="middle" font-family="ui-monospace,'Courier New',monospace" font-size="11" fill="#38bdf8">memcached:1.6</text>
  <text x="720" y="872" text-anchor="middle" font-family="ui-monospace,'Courier New',monospace" font-size="10.5" fill="#9fb0cc">cache :11211</text>
  <text x="720" y="891" text-anchor="middle" font-family="ui-monospace,'Courier New',monospace" font-size="9.5" fill="#6d7f9e">stateless</text>

  <rect x="80" y="940" width="230" height="46" rx="9" fill="#0b1220" stroke="#3a4c70" stroke-width="1" stroke-dasharray="4 4"/>
  <text x="195" y="959" text-anchor="middle" font-family="ui-monospace,'Courier New',monospace" font-size="10" fill="#9fb0cc">db_backup.sql</text>
  <text x="195" y="975" text-anchor="middle" font-family="ui-monospace,'Courier New',monospace" font-size="9" fill="#6d7f9e">/docker-entrypoint-initdb.d/</text>
  <line x1="195" y1="940" x2="195" y2="906" stroke="#5b7099" stroke-width="1.4" marker-end="url(#ah)"/>
  <text x="250" y="928" font-family="ui-monospace,'Courier New',monospace" font-size="8.5" fill="#8a97b5">seed on init</text>

  <ellipse cx="415" cy="948" rx="46" ry="9" fill="#0f1626" stroke="#ff9f1c" stroke-width="1.2"/>
  <path d="M369 948 L369 976 A46 9 0 0 0 461 976 L461 948" fill="#0f1626" stroke="#ff9f1c" stroke-width="1.2"/>
  <ellipse cx="415" cy="948" rx="46" ry="9" fill="none" stroke="#ff9f1c" stroke-width="1.2"/>
  <text x="415" y="971" text-anchor="middle" font-family="ui-monospace,'Courier New',monospace" font-size="10" fill="#ff9f1c">db_data</text>
  <path d="M310 876 L368 950" fill="none" stroke="#5b7099" stroke-width="1.3" marker-end="url(#ah)"/>
  <text x="362" y="906" font-family="ui-monospace,'Courier New',monospace" font-size="8.5" fill="#8a97b5">volume</text>
  <text x="415" y="1006" text-anchor="middle" font-family="ui-monospace,'Courier New',monospace" font-size="9" fill="#6d7f9e">named volume · /var/lib/mysql</text>

  <text x="600" y="948" font-family="ui-monospace,'Courier New',monospace" font-size="9.5" fill="#6d7f9e">──  services resolve by name via</text>
  <text x="600" y="964" font-family="ui-monospace,'Courier New',monospace" font-size="9.5" fill="#6d7f9e">      Docker internal DNS</text>
  <text x="600" y="980" font-family="ui-monospace,'Courier New',monospace" font-size="9.5" fill="#6d7f9e">      (db01 / rmq01 / mc01)</text>

  <text x="880" y="1152" text-anchor="end" font-family="ui-monospace,'Courier New',monospace" font-size="10" letter-spacing="1" fill="#ff9f1c">ALnaqib · DevOps Engineer</text>
</svg>
